<svg width="48" height="48" viewBox="0 0 48 48" fill="none" xmlns="http://www.w3.org/2000/svg">
<path d="M32.5653 15.7149C33.3994 16.549 33.902 17.2227 34.0731 17.736L27.657 24.1521L34.041 30.5361C33.8486 31.0708 33.346 31.7445 32.5333 32.5572C31.635 33.4554 30.9078 33.9901 30.3518 34.1612L23.9999 27.8092L17.6158 34.1933C17.0384 33.958 16.3647 33.4554 15.5948 32.6855C14.6965 31.7872 14.1725 31.0494 14.0228 30.4719L20.3427 24.1521L13.9587 17.7681C14.2153 17.1265 14.7393 16.41 15.5306 15.6187C16.3433 14.806 17.0384 14.3034 17.6158 14.1109L23.9999 20.4949L30.416 14.0788C30.9934 14.3141 31.7099 14.8594 32.5653 15.7149Z" fill="white"/>
</svg>
