<svg width="48" height="48" viewBox="0 0 48 48" fill="none" xmlns="http://www.w3.org/2000/svg">
<g id="icon">
<path id="+" d="M32.5655 15.7149C33.3996 16.549 33.9021 17.2227 34.0732 17.736L27.6572 24.1521L34.0412 30.5361C33.8487 31.0708 33.3461 31.7445 32.5334 32.5572C31.6351 33.4554 30.908 33.9901 30.3519 34.1612L24 27.8092L17.616 34.1933C17.0385 33.958 16.3648 33.4554 15.5949 32.6855C14.6966 31.7872 14.1727 31.0494 14.023 30.4719L20.3428 24.1521L13.9588 17.7681C14.2154 17.1265 14.7394 16.41 15.5307 15.6187C16.3434 14.806 17.0385 14.3034 17.616 14.1109L24 20.4949L30.4161 14.0788C30.9935 14.3141 31.71 14.8594 32.5655 15.7149Z" fill="#1A1A1A"/>
</g>
</svg>
