<svg width="24" height="25" viewBox="0 0 24 25" fill="none" xmlns="http://www.w3.org/2000/svg">
<g id="icon:outline-place">
<path id="Vector" d="M11.6628 19.7538L12 20.0619L12.3372 19.7538C14.3813 17.8863 15.9136 16.1542 16.9381 14.577C17.9593 13.0047 18.5 11.549 18.5 10.2446C18.5 6.34499 15.6326 3.54462 12 3.54462C8.36739 3.54462 5.5 6.34499 5.5 10.2446C5.5 11.549 6.04072 13.0047 7.06193 14.577C8.08639 16.1542 9.61867 17.8863 11.6628 19.7538ZM12 11.5446C11.1761 11.5446 10.5 10.8685 10.5 10.0446C10.5 9.22076 11.1761 8.54462 12 8.54462C12.8239 8.54462 13.5 9.22076 13.5 10.0446C13.5 10.8685 12.8239 11.5446 12 11.5446ZM12 2.54462C15.9394 2.54462 19.5 5.55606 19.5 10.2446C19.5 11.7698 18.8858 13.4849 17.585 15.4027C16.339 17.2396 14.4822 19.2337 12 21.3851C9.51779 19.2337 7.66105 17.2396 6.41504 15.4027C5.11418 13.4849 4.5 11.7698 4.5 10.2446C4.5 5.55606 8.06059 2.54462 12 2.54462Z" fill="#F17A5D" stroke="#F17A5D"/>
</g>
</svg>
