<svg width="24" height="25" viewBox="0 0 24 25" fill="none" xmlns="http://www.w3.org/2000/svg">
<g id="icon:ticket">
<circle id="Ellipse 1" cx="12" cy="12.0446" r="9.5" stroke="#F17A5D" stroke-width="2"/>
<path id="&#226;&#130;&#172;" d="M14.9444 15.4521C14.5631 15.8421 14.1384 16.1411 13.6704 16.3491C13.2024 16.5571 12.7041 16.6611 12.1754 16.6611C11.2221 16.6611 10.4161 16.3708 9.75741 15.7901C9.09875 15.2094 8.66541 14.4078 8.45741 13.3851H7.27441V12.3971H8.32741C8.31875 12.3018 8.31441 12.1588 8.31441 11.9681C8.31441 11.7514 8.31875 11.5911 8.32741 11.4871H7.27441V10.4991H8.45741C8.67408 9.49375 9.09875 8.70942 9.73141 8.14609C10.3641 7.58275 11.1441 7.30109 12.0714 7.30109C13.1201 7.30109 13.9867 7.65642 14.6714 8.36709L14.1124 9.31609C13.5664 8.70942 12.8991 8.40609 12.1104 8.40609C11.5384 8.40609 11.0531 8.58375 10.6544 8.93909C10.2557 9.29442 9.97841 9.81442 9.82241 10.4991H12.7344V11.4871H9.67941C9.67075 11.5911 9.66641 11.7514 9.66641 11.9681C9.66641 12.1588 9.67075 12.3018 9.67941 12.3971H12.7344V13.3851H9.80941C9.97408 14.0958 10.2644 14.6374 10.6804 15.0101C11.0964 15.3741 11.6034 15.5561 12.2014 15.5561C12.6087 15.5561 12.9684 15.4868 13.2804 15.3481C13.5924 15.2008 13.8741 14.9798 14.1254 14.6851L14.9444 15.4521Z" fill="#F17A5D"/>
</g>
</svg>
