<svg width="36" height="48" viewBox="0 0 36 48" fill="none" xmlns="http://www.w3.org/2000/svg">
<g clip-path="url(#clip0_158_256)">
<path d="M20.8165 18.0661C20.8165 20.2692 20.8249 22.4723 20.8137 24.6747C20.8053 26.4016 20.4291 27.1516 19.3041 27.312C18.3836 27.4437 17.4386 27.4276 16.5195 27.2721C15.4911 27.0984 15.1359 26.3771 15.131 24.8253C15.1212 21.5213 15.1275 18.2166 15.1275 14.912C15.1275 13.676 15.1177 12.44 15.131 11.2046C15.1471 9.72913 15.5422 8.97702 16.5258 8.84817C17.4484 8.72772 18.3878 8.71861 19.3104 8.83136C20.4095 8.96512 20.8032 9.70042 20.813 11.3755C20.8263 13.6052 20.8165 15.835 20.8165 18.0647V18.0661Z" fill="#1A1A1A"/>
<path d="M5.69536 4.90062C7.25825 2.60437 9.79558 0.449577 12.7014 0.0329044C16.1039 -0.29133 19.5708 1.84806 22.6195 2.9244C22.9509 3.03575 23.1947 3.12118 23.5148 3.18281C24.9131 3.38869 26.3051 2.54695 27.4623 1.81654C27.7033 1.66388 27.9415 1.48951 28.1783 1.34735C28.4585 1.17368 28.827 1.25981 29.0014 1.53993C29.0855 1.67578 29.1086 1.83405 29.0785 1.97901C28.9475 2.58686 28.7464 3.11278 28.4725 3.65831C27.5835 5.43984 25.924 6.91255 23.9015 7.28791C20.7407 7.81453 17.0489 5.87192 14.1753 4.97555C13.7851 4.8537 13.411 4.75636 13.1967 4.72134C12.1291 4.57709 11.0005 5.01127 9.81099 5.40063C8.9059 5.71086 7.91745 6.12613 7.00536 6.44056C6.04212 6.83762 5.13353 5.78088 5.69466 4.89992L5.69536 4.90062Z" fill="#1A1A1A"/>
<path d="M22.8927 32.7687C18.9186 39.4803 9.78435 40.8689 4.05469 35.5425C-1.48163 30.3926 -1.13767 21.4212 4.88482 16.8098C6.48133 15.5976 8.38748 14.7908 10.3623 14.5261C11.3556 14.3931 12.2691 15.0906 12.4022 16.0836C12.529 17.0269 11.9056 17.8987 10.9907 18.0969C10.2236 18.258 9.48242 18.5136 8.79519 18.8798C8.2712 19.1558 7.77732 19.4905 7.32828 19.8763C3.57482 23.0277 3.45713 28.9073 7.14544 32.1482C9.5868 34.3212 13.2653 34.6854 16.0597 32.9809C17.1547 32.338 18.0773 31.38 18.7379 30.2981C20.4955 27.6307 24.3975 29.9528 22.892 32.7687H22.8927Z" fill="#1A1A1A"/>
<path d="M23.7283 23.7658C30.6895 23.5725 36.3085 29.4612 35.8496 36.4046C35.5547 41.1295 32.5193 45.2787 28.1437 47.0658C25.2673 48.2626 21.9517 48.3081 19.0312 47.2108C17.0851 46.4776 15.3107 45.2423 13.9705 43.633C13.1166 42.6078 13.256 41.0839 14.2816 40.2303C15.3023 39.3801 16.8182 39.516 17.6729 40.5258C18.3923 41.3697 19.2932 42.0567 20.302 42.5181C25.6155 44.9271 31.638 40.8991 31.4986 35.0825C31.4348 31.6776 29.0278 28.6503 25.7528 27.7245L25.2561 27.5964L24.7518 27.499L24.2411 27.4304L23.7255 27.3933C21.3892 27.2315 21.3969 23.9233 23.729 23.7658H23.7283Z" fill="#1A1A1A"/>
</g>
<defs>
<clipPath id="clip0_158_256">
<rect width="35.7517" height="48" fill="white" transform="translate(0.124023)"/>
</clipPath>
</defs>
</svg>
