<svg width="37" height="48" viewBox="0 0 37 48" fill="none" xmlns="http://www.w3.org/2000/svg">
<g clip-path="url(#clip0_158_378)">
<path d="M21.6534 18.0661C21.6534 20.2692 21.6619 22.4723 21.6506 24.6747C21.6422 26.4016 21.2661 27.1516 20.141 27.312C19.2205 27.4437 18.2755 27.4276 17.3564 27.2721C16.328 27.0984 15.9728 26.3771 15.9679 24.8253C15.9581 21.5213 15.9644 18.2166 15.9644 14.912C15.9644 13.676 15.9546 12.44 15.9679 11.2046C15.984 9.72913 16.3791 8.97702 17.3627 8.84817C18.2853 8.72772 19.2247 8.71861 20.1473 8.83136C21.2464 8.96512 21.6401 9.70042 21.6499 11.3755C21.6633 13.6052 21.6534 15.835 21.6534 18.0647V18.0661Z" fill="white"/>
<path d="M6.53227 4.90062C8.09516 2.60437 10.6325 0.449577 13.5383 0.0329044C16.9408 -0.29133 20.4077 1.84806 23.4565 2.9244C23.7878 3.03575 24.0316 3.12118 24.3517 3.18281C25.75 3.38869 27.142 2.54695 28.2993 1.81654C28.5402 1.66388 28.7784 1.48951 29.0152 1.34735C29.2954 1.17368 29.6639 1.25981 29.8383 1.53993C29.9224 1.67578 29.9455 1.83405 29.9154 1.97901C29.7844 2.58686 29.5833 3.11278 29.3094 3.65831C28.4204 5.43984 26.7609 6.91255 24.7384 7.28791C21.5776 7.81453 17.8858 5.87192 15.0122 4.97555C14.622 4.8537 14.2479 4.75636 14.0336 4.72134C12.966 4.57709 11.8374 5.01127 10.6479 5.40063C9.74282 5.71086 8.75436 6.12613 7.84227 6.44056C6.87904 6.83762 5.97044 5.78088 6.53157 4.89992L6.53227 4.90062Z" fill="white"/>
<path d="M23.7296 32.7687C19.7555 39.4803 10.6213 40.8689 4.8916 35.5425C-0.644716 30.3926 -0.300754 21.4212 5.72173 16.8098C7.31825 15.5976 9.2244 14.7908 11.1992 14.5261C12.1926 14.3931 13.1061 15.0906 13.2392 16.0836C13.366 17.0269 12.7425 17.8987 11.8276 18.0969C11.0605 18.258 10.3193 18.5136 9.63211 18.8798C9.10811 19.1558 8.61423 19.4905 8.16519 19.8763C4.41173 23.0277 4.29404 28.9073 7.98235 32.1482C10.4237 34.3212 14.1022 34.6854 16.8966 32.9809C17.9916 32.338 18.9142 31.38 19.5748 30.2981C21.3324 27.6307 25.2344 29.9528 23.7289 32.7687H23.7296Z" fill="white"/>
<path d="M24.5652 23.7658C31.5264 23.5725 37.1454 29.4612 36.6865 36.4046C36.3916 41.1295 33.3562 45.2787 28.9807 47.0658C26.1043 48.2626 22.7886 48.3081 19.8681 47.2108C17.922 46.4776 16.1476 45.2423 14.8075 43.633C13.9535 42.6078 14.0929 41.0839 15.1185 40.2303C16.1392 39.3801 17.6551 39.516 18.5098 40.5258C19.2292 41.3697 20.1301 42.0567 21.1389 42.5181C26.4524 44.9271 32.4749 40.8991 32.3355 35.0825C32.2718 31.6776 29.8647 28.6503 26.5897 27.7245L26.0931 27.5964L25.5887 27.499L25.078 27.4304L24.5624 27.3933C22.2261 27.2315 22.2338 23.9233 24.5659 23.7658H24.5652Z" fill="white"/>
</g>
<defs>
<clipPath id="clip0_158_378">
<rect width="35.7517" height="48" fill="white" transform="translate(0.960938)"/>
</clipPath>
</defs>
</svg>
